<?xml version="1.0" encoding="utf-8"?>
<!-- Generator: Adobe Illustrator 23.0.3, SVG Export Plug-In . SVG Version: 6.00 Build 0)  -->
<svg version="1.1" xmlns="http://www.w3.org/2000/svg" xmlns:xlink="http://www.w3.org/1999/xlink" x="0px" y="0px"
	 viewBox="0 0 200 130" style="enable-background:new 0 0 200 130;" xml:space="preserve">
<style type="text/css">
	.st0{fill:#FFFFFF;}
	.st1{fill:#FF9735;}
	.st2{fill:#FBFD56;}
	.st3{fill:#F316E5;}
	.st4{fill:#9EEB4F;}
	.st5{fill:#00DAFB;}
	.st6{fill:#FF0017;}
</style>
<g id="Calque_1">
</g>
<g id="Calque_2">
	<rect y="115" class="st0" width="200" height="15"/>
	<path class="st1" d="M167.92,115H32.08c-1.15,0-2.08-0.93-2.08-2.08v-10.84c0-1.15,0.93-2.08,2.08-2.08h135.84
		c1.15,0,2.08,0.93,2.08,2.08v10.84C170,114.07,169.07,115,167.92,115z"/>
	<path class="st2" d="M155.92,100H45.08c-1.15,0-2.08-0.93-2.08-2.08V87.08c0-1.15,0.93-2.08,2.08-2.08h110.84
		c1.15,0,2.08,0.93,2.08,2.08v10.84C158,99.07,157.07,100,155.92,100z"/>
	<path class="st3" d="M145.92,85H55.08C53.93,85,53,84.07,53,82.92V72.08c0-1.15,0.93-2.08,2.08-2.08h90.84
		c1.15,0,2.08,0.93,2.08,2.08v10.84C148,84.07,147.07,85,145.92,85z"/>
	<path class="st4" d="M132.92,70H67.08C65.93,70,65,69.07,65,67.92V57.08c0-1.15,0.93-2.08,2.08-2.08h65.84
		c1.15,0,2.08,0.93,2.08,2.08v10.84C135,69.07,134.07,70,132.92,70z"/>
	<path class="st5" d="M120.92,55H80.08C78.93,55,78,54.07,78,52.92V42.08c0-1.15,0.93-2.08,2.08-2.08h40.84
		c1.15,0,2.08,0.93,2.08,2.08v10.84C123,54.07,122.07,55,120.92,55z"/>
	<path class="st6" d="M107.92,40H92.08C90.93,40,90,39.07,90,37.92V27.08c0-1.15,0.93-2.08,2.08-2.08h15.84
		c1.15,0,2.08,0.93,2.08,2.08v10.84C110,39.07,109.07,40,107.92,40z"/>
	<path class="st0" d="M105,25H95V4.17C95,1.87,96.87,0,99.17,0l1.67,0c2.3,0,4.17,1.87,4.17,4.17V25z"/>
</g>
</svg>
